<?xml version="1.0" encoding="UTF-8"?>
<svg width="40" height="40" version="1.1" xmlns="http://www.w3.org/2000/svg" xmlns:xlink="http://www.w3.org/1999/xlink">
 <defs>
  <style>.sl {
      stroke: #2c3e5f;
    }
    .fl {
      fill: #2c3e5f;
    }
    .sd {
      stroke: #ecf0f1;
    }
    .fd {
      fill: #ecf0f1;
    }</style>
 </defs>
 <g style="fill:#2c3e50;paint-order:stroke fill markers;stroke:#ffffff">
  <path id="back" d="m26.884 7.4777a2.5 2.5 0 0 1 1.51 4.554l-11.122 7.946 11.121 7.945a2.5 2.5 0 1 1-2.906 4.068l-13.97-9.978a2.5 2.5 0 0 1 0-4.07l13.97-9.979a2.5 2.5 0 0 1 1.397-0.486z" stroke-width="2"/>
  <use transform="matrix(-1 0 0 1 40 40)" xlink:href="#back"/>
 </g>
 <g class="sl" style="fill:none;stroke-width:3">
  <path id="ampliar" d="m61.003 18.996 9.4957-9.496m-6.9788 0h6.9798v6.979m-26.999 1.52v-14.499h32.999v33h-14.501m-18.499-13h13v13h-13z"/>
  <use class="sd" y="40" xlink:href="#ampliar"/>
 </g>
 <g class="sl" style="stroke-linecap:round;stroke-width:4">
  <path id="cerrar" d="m113 7-26 26m0-26 26 26" stroke-width="4"/>
  <use class="sd" y="40" xlink:href="#cerrar"/>
 </g>
 <g class="sl fl">
  <path id="config" d="m139.84 1c-0.96647 0.00784-1.9309 0.089407-2.885 0.244l-0.527 5.736c-1.0878 0.29822-2.134 0.7316-3.114 1.29l-4.43-3.682c-1.6549 1.1932-3.1068 2.6451-4.3 4.3l3.682 4.43c-0.55856 0.98066-0.99194 2.0275-1.29 3.116l-5.734 0.527c-0.16328 1.0048-0.24554 2.021-0.246 3.039-2.6e-4 1.0182 0.0813 2.0348 0.244 3.04l5.736 0.528c0.29822 1.0878 0.7316 2.134 1.29 3.114l-3.682 4.43c1.1941 1.6551 2.647 3.1071 4.303 4.3l4.427-3.682c0.98003 0.5584 2.0262 0.99178 3.114 1.29l0.527 5.734c1.0054 0.16338 2.0224 0.24565 3.041 0.246 1.0186 3.1e-4 2.0355-0.08129 3.041-0.244l0.527-5.736c1.0878-0.29822 2.134-0.7316 3.114-1.29l4.43 3.682c1.6551-1.1941 3.1071-2.647 4.3-4.303l-3.682-4.427c0.55856-0.98066 0.99194-2.0275 1.29-3.116l5.734-0.527c0.16328-1.0048 0.24554-2.021 0.246-3.039 3.1e-4 -1.0186-0.0813-2.0355-0.244-3.041l-5.736-0.527c-0.29822-1.0878-0.7316-2.134-1.29-3.114l3.682-4.43c-1.1933-1.6542-2.6453-3.1054-4.3-4.298l-4.43 3.681c-0.98003-0.5584-2.0262-0.99178-3.114-1.29l-0.527-5.735c-1.0054-0.16338-2.0224-0.24565-3.041-0.246-0.052-2.1347e-4 -0.104-2.1347e-4 -0.156 0zm7.656 19c0 4.1421-3.3579 7.5-7.5 7.5s-7.5-3.3579-7.5-7.5c-5e-5 -4.1277 3.3281-7.4898 7.4815-7.5 4.1534-0.01018 7.5185 3.3579 7.5185 7.5z"/>
  <use class="sd fd" y="40" xlink:href="#config"/>
 </g>
 <g class="fl">
  <path id="link" d="m194.51 6.1941c3.315 3.316 3.315 8.7206 0 12.036l-4.7959 4.7959c0.33441-1.4197 0.36445-2.8965 0.0761-4.3243l2.5952-2.5952a5.4617 5.4617 0 0 0 0-7.7875l-0.70786-0.70786a5.4617 5.4617 0 0 0-7.7875 0l-7.7875 7.7875a5.4617 5.4617 0 0 0 0 7.7875l0.70786 0.70786a5.4807 5.4807 0 0 0 4.0389 1.625l-2.6202 2.6202a8.4493 8.4493 0 0 1-3.5423-2.1216l-0.70786-0.70786c-3.316-3.315-3.316-8.7206 0-12.035l7.7875-7.7885c3.315-3.315 8.7206-3.315 12.035 0zm-8.4964 8.4964c3.316 3.315 3.316 8.7206 0 12.035l-7.7875 7.7885c-3.315 3.315-8.7206 3.315-12.035 0l-0.70887-0.70786c-3.315-3.316-3.315-8.7206 0-12.036l4.7959-4.7959a10.123 10.123 0 0 0-0.0761 4.3243l-2.5952 2.5952a5.4617 5.4617 0 0 0 0 7.7875l0.70786 0.70786a5.4617 5.4617 0 0 0 7.7875 0l7.7875-7.7875a5.4617 5.4617 0 0 0 0-7.7875l-0.70787-0.70786a5.4807 5.4807 0 0 0-4.0389-1.625l2.6202-2.6202a8.4493 8.4493 0 0 1 3.5423 2.1216z"/>
  <use class="fd" y="40" xlink:href="#link"/>
 </g>
 <g class="fl">
  <path id="moon" d="m212.75 5.7106a16.5 16.499 0 0 0-6.0399 22.539 16.5 16.499 0 0 0 22.54 6.0398 16.5 16.499 0 0 0 6.2499-6.4177 14.786 14.785 0 0 1-15.896-7.0667 14.786 14.785 0 0 1 1.829-17.299 16.5 16.499 0 0 0-8.6828 2.2049z"/>
  <use class="fd" y="40" xlink:href="#moon"/>
 </g>
 <g class="fl sl" style="stroke-linecap:round;stroke-width:4">
  <path id="sun" d="m263.5 20c0 1.933-1.567 3.5-3.5 3.5s-3.5-1.567-3.5-3.5 1.567-3.5 3.5-3.5 3.5 1.567 3.5 3.5zm7.4595 10.96-4.0876-4.0877m-13.744-13.744-4.0876-4.0877m26.46 10.96h-5.7817m-19.437 0h-5.7817m26.46-10.96-4.0876 4.0877m-13.744 13.744-4.0876 4.0877m10.96-26.46v5.7819m0 19.437v5.7809"/>
  <use class="fd sd" y="40" xlink:href="#sun"/>
 </g>
 <g class="sl" style="stroke-linecap:round;stroke-width:4">
  <path id="table_of_content" d="m297.53 32h16.967m-29 0h3.9923m8.0405-8h16.967m-29 0h3.9923m8.0405-8h16.967m-29 0h3.9923m8.0405-8h16.967m-29 0h3.9923"/>
  <use class="sd" y="40" xlink:href="#table_of_content"/>
 </g>
 <path d="m-41 1c-20.98 0-38 17.021-38 38s17.019 38 38 38 38-17.021 38-38-17.021-38-38-38zm-1.7566 2.8196c19.429 0 35.182 15.753 35.182 35.18s-15.754 35.18-35.182 35.18-35.53-15.753-35.53-35.18 16.102-35.18 35.53-35.18zm-1.7575 2.8168c-17.877 0-33.076 14.488-33.076 32.364s15.2 32.364 33.076 32.364 32.364-14.488 32.364-32.364-14.488-32.364-32.364-32.364zm-1.7584 2.8024c16.325 0 29.548 13.237 29.548 29.56s-13.224 29.56-29.548 29.56-30.608-13.237-30.608-29.56 14.283-29.56 30.608-29.56zm-1.7566 2.8196c-14.772-9.5e-4 -28.154 11.969-28.154 26.74s13.381 26.742 28.154 26.742c14.772 0 26.726-11.97 26.726-26.742s-11.969-26.742-26.726-26.742zm-1.7756 2.8168c13.205 0 23.944 10.704 23.944 23.924s-10.722 23.924-23.944 23.924-25.68-10.72-25.68-23.924 12.476-23.924 25.68-23.924zm-1.7556 2.8196c-11.654 0-23.23 9.4524-23.23 21.106s11.559 21.106 23.228 21.106c11.671 0 21.12-9.4524 21.12-21.106s-9.4506-21.106-21.12-21.106zm-1.7575 2.8024c10.101 0 18.304 8.2014 18.304 18.303s-8.2014 18.303-18.304 18.303c-10.101 0-20.76-8.1852-20.76-18.303s10.657-18.303 20.76-18.303zm-1.7594 2.8168c-8.55 0-18.303 6.936-18.303 15.486s9.7528 15.486 18.303 15.486 15.487-6.936 15.487-15.486-6.936-15.486-15.487-15.486zm-1.7575 2.8196c6.9976 0 12.666 5.6676 12.666 12.666s-5.6686 12.666-12.666 12.666c-6.9986 0-15.835-5.6676-15.835-12.666s8.835-12.666 15.835-12.666z" fill="#2daae4"/>
 <view id="back" viewBox="0 0 40 40"/>
 <view id="next" viewBox="0 40 40 40"/>
 <view id="ampliar_light" viewBox="40 0 40 40"/>
 <view id="ampliar_dark" viewBox="40 40 40 40"/>
 <view id="cerrar_light" viewBox="80 0 40 40"/>
 <view id="cerrar_dark" viewBox="80 40 40 40"/>
 <view id="config_light" viewBox="120 0 40 40"/>
 <view id="config_dark" viewBox="120 40 40 40"/>
 <view id="link_light" viewBox="160 0 40 40"/>
 <view id="link_dark" viewBox="160 40 40 40"/>
 <view id="moon_light" viewBox="200 0 40 40"/>
 <view id="moon_dark" viewBox="200 40 40 40"/>
 <view id="sun_light" viewBox="240 0 40 40"/>
 <view id="sun_dark" viewBox="240 40 40 40"/>
 <view id="table_of_content_light" viewBox="280 0 40 40"/>
 <view id="table_of_content_dark" viewBox="280 40 40 40"/>
 <view id="interactive" viewBox="-80 0 80 80"/>
</svg>
