<?xml version="1.0" encoding="UTF-8" standalone="no"?>
<svg
   xmlns:dc="http://purl.org/dc/elements/1.1/"
   xmlns:cc="http://creativecommons.org/ns#"
   xmlns:rdf="http://www.w3.org/1999/02/22-rdf-syntax-ns#"
   xmlns:svg="http://www.w3.org/2000/svg"
   xmlns="http://www.w3.org/2000/svg"
   xmlns:sodipodi="http://sodipodi.sourceforge.net/DTD/sodipodi-0.dtd"
   xmlns:inkscape="http://www.inkscape.org/namespaces/inkscape"
   height="100"
   viewBox="0 0 100 100"
   width="100"
   version="1.1"
   id="svg20"
   sodipodi:docname="interactive.svg"
   inkscape:version="1.0.2-2 (e86c870879, 2021-01-15)">
  <metadata
     id="metadata26">
    <rdf:RDF>
      <cc:Work
         rdf:about="">
        <dc:format>image/svg+xml</dc:format>
        <dc:type
           rdf:resource="http://purl.org/dc/dcmitype/StillImage" />
        <dc:title></dc:title>
      </cc:Work>
    </rdf:RDF>
  </metadata>
  <defs
     id="defs24" />
  <sodipodi:namedview
     pagecolor="#ffffff"
     bordercolor="#666666"
     borderopacity="1"
     objecttolerance="10"
     gridtolerance="10"
     guidetolerance="10"
     inkscape:pageopacity="0"
     inkscape:pageshadow="2"
     inkscape:window-width="1920"
     inkscape:window-height="1027"
     id="namedview22"
     showgrid="false"
     fit-margin-top="10"
     fit-margin-left="10"
     fit-margin-bottom="10"
     fit-margin-right="10"
     inkscape:zoom="0.46698944"
     inkscape:cx="101.22584"
     inkscape:cy="-75.278985"
     inkscape:window-x="-8"
     inkscape:window-y="-8"
     inkscape:window-maximized="1"
     inkscape:current-layer="svg20" />
  <path
     id="path4"
     style="fill:#2daae4;stroke-width:0.999992"
     d="M 49.99875,10 C 27.91479,10 10,27.91673 10,49.99999 10,72.08326 27.91479,90 49.99875,90 72.08271,90 90,72.08326 90,49.99999 90,27.91673 72.08271,10 49.99875,10 Z m -1.84829,2.96769 c 20.45058,0 37.03347,16.58237 37.03347,37.0323 0,20.44995 -16.58289,37.03231 -37.03347,37.03231 -20.45058,0 -37.40162,-16.58236 -37.40162,-37.03231 0,-20.44993 16.95104,-37.0323 37.40162,-37.0323 z m -1.8508,2.96519 c -18.8172,0 -34.81702,15.2505 -34.81702,34.06711 0,18.81662 15.99982,34.06712 34.81702,34.06712 18.8172,0 34.06819,-15.2505 34.06819,-34.06712 0,-18.81661 -15.25099,-34.06711 -34.06819,-34.06711 z m -1.8508,2.95016 c 17.18383,0 31.10291,13.93367 31.10291,31.11695 0,17.18329 -13.91908,31.11696 -31.10291,31.11696 -17.18382,0 -32.21738,-13.93367 -32.21738,-31.11696 0,-17.18328 15.03356,-31.11695 32.21738,-31.11695 z m -1.84828,2.9677 c -15.55045,0 -29.63529,12.5993 -29.63529,28.14925 0,15.54996 14.08484,28.14927 29.63529,28.14927 15.55044,0 28.1326,-12.59931 28.1326,-28.14927 0,-15.54995 -12.59884,-28.14925 -28.1326,-28.14925 z m -1.86833,2.96519 c 13.90039,0 25.20239,11.26744 25.20239,25.18406 0,13.91663 -11.28534,25.18408 -25.20239,25.18408 -13.91707,0 -27.03315,-11.28411 -27.03315,-25.18408 0,-13.89995 13.13275,-25.18406 27.03315,-25.18406 z m -1.8483,2.96769 c -12.26701,0 -24.45105,9.94974 -24.45105,22.21637 0,12.26663 12.16737,22.21639 24.45105,22.21639 12.28368,0 22.23211,-9.94976 22.23211,-22.21639 0,-12.26663 -9.94843,-22.21637 -22.23211,-22.21637 z m -1.85079,2.95016 c 10.63363,0 19.26682,8.63292 19.26682,19.26621 0,10.63331 -8.63319,19.26623 -19.26682,19.26623 -10.63364,0 -21.85142,-8.61625 -21.85142,-19.26623 0,-10.64997 11.21778,-19.26621 21.85142,-19.26621 z m -1.8508,2.96519 c -9.00026,0 -19.26682,7.30105 -19.26682,16.30102 0,8.99998 10.26656,16.30103 19.26682,16.30103 9.00026,0 16.30154,-7.30105 16.30154,-16.30103 0,-8.99997 -7.30128,-16.30102 -16.30154,-16.30102 z m -1.8508,2.96769 c 7.36688,0 13.33375,5.96669 13.33375,13.33333 0,7.36666 -5.96687,13.33334 -13.33375,13.33334 -7.36687,0 -16.66718,-5.96668 -16.66718,-13.33334 0,-7.36664 9.30031,-13.33333 16.66718,-13.33333 z" />
</svg>
