<svg xmlns="http://www.w3.org/2000/svg" height="100" width="100"><path d="M49.999 10C27.915 10 10 27.917 10 50s17.915 40 39.999 40C72.083 90 90 72.083 90 50S72.083 10 49.999 10zm-1.849 2.968c20.451 0 37.034 16.582 37.034 37.032 0 20.45-16.583 37.032-37.034 37.032C27.7 87.032 10.75 70.45 10.75 50c0-20.45 16.95-37.032 37.401-37.032zm-1.85 2.965c-18.818 0-34.817 15.25-34.817 34.067s16 34.067 34.817 34.067S80.368 68.817 80.368 50 65.117 15.933 46.3 15.933zm-1.851 2.95c17.184 0 31.103 13.934 31.103 31.117s-13.92 31.117-31.103 31.117C27.265 81.117 12.23 67.183 12.23 50S27.265 18.883 44.45 18.883zM42.6 21.851C27.05 21.85 12.965 34.45 12.965 50S27.05 78.15 42.601 78.15c15.55 0 28.132-12.6 28.132-28.15 0-15.55-12.599-28.15-28.132-28.15zm-1.869 2.965c13.9 0 25.203 11.267 25.203 25.184 0 13.917-11.286 25.184-25.203 25.184S13.7 63.9 13.7 50s13.133-25.184 27.033-25.184zm-1.848 2.968c-12.267 0-24.451 9.95-24.451 22.216 0 12.267 12.167 22.216 24.45 22.216 12.285 0 22.233-9.95 22.233-22.216 0-12.267-9.948-22.216-22.232-22.216zm-1.85 2.95C47.666 30.734 56.3 39.367 56.3 50s-8.633 19.266-19.267 19.266C26.4 69.266 15.182 60.65 15.182 50c0-10.65 11.218-19.266 21.851-19.266zm-1.852 2.965c-9 0-19.266 7.301-19.266 16.301 0 9 10.266 16.301 19.266 16.301 9 0 16.302-7.301 16.302-16.301 0-9-7.301-16.301-16.302-16.301zm-1.85 2.968c7.366 0 13.333 5.966 13.333 13.333s-5.967 13.333-13.333 13.333c-7.367 0-16.668-5.966-16.668-13.333s9.3-13.333 16.668-13.333z" fill="#2daae4"/></svg>