<svg height="660" viewBox="0 0 512 660" width="512" xmlns="http://www.w3.org/2000/svg" xmlns:xlink="http://www.w3.org/1999/xlink"><filter id="a" color-interpolation-filters="sRGB" height="1.5" width="1" x="0"><feFlood flood-opacity=".1"/><feComposite in2="SourceGraphic" operator="in"/><feOffset dy="2" result="result1"/><feComposite in="SourceGraphic" in2="result1"/></filter><path d="m38.246.211v659.577m33.824-659.577v659.577m33.825-659.577v659.577m33.824-659.577v659.577m33.825-659.577v659.577m33.824-659.577v659.577m33.825-659.577v659.577m33.824-659.577v659.577m33.825-659.577v659.577m33.824-659.577v659.577m33.825-659.577v659.577m33.824-659.577v659.577m33.825-659.577v659.577m33.824-659.577v659.577m-473.542-625.752h507.367m-507.367 33.824h507.367m-507.367 33.825h507.367m-507.367 33.824h507.367m-507.367 33.825h507.367m-507.367 33.824h507.367m-507.367 33.825h507.367m-507.367 33.824h507.367m-507.367 33.825h507.367m-507.367 33.824h507.367m-507.367 33.825h507.367m-507.367 33.824h507.367m-507.367 33.825h507.367m-507.367 33.824h507.367m-507.367 33.824h507.367m-507.367 33.825h507.367m-507.367 33.824h507.367m-507.367 33.825h507.367m-507.367 33.824h507.367m-498.911-642.665v659.579m8.456-659.58v659.577m8.456-659.576v659.579m16.912-659.58v659.58m8.456-659.58v659.58m8.456-659.58v659.58m16.913-659.58v659.58m8.456-659.58v659.58m8.456-659.58v659.58m16.911-659.58v659.58m8.457-659.58v659.58m8.456-659.58v659.58m16.913-659.58v659.58m8.456-659.58v659.58m8.456-659.58v659.58m16.912-659.58v659.58m8.456-659.58v659.58m8.456-659.58v659.58m16.912-659.58v659.58m8.457-659.58v659.58m8.456-659.58v659.58m16.912-659.58v659.58m8.456-659.58v659.58m8.456-659.58v659.58m16.912-659.58v659.58m8.457-659.58v659.58m8.456-659.58v659.58m16.912-659.58v659.58m8.456-659.58v659.58m8.456-659.58v659.58m16.912-659.58v659.58m8.456-659.58v659.58m8.457-659.58v659.58m16.912-659.58v659.58m8.456-659.58v659.58m8.456-659.58v659.58m16.912-659.58v659.58m8.456-659.58v659.58m8.457-659.58v659.58m16.912-659.58v659.58m8.456-659.58v659.58m8.456-659.58v659.58m16.912-659.58v659.58m8.456-659.58v659.58m8.456-659.58v659.58m8.458-659.58h-507.368v659.58h507.367v-659.58 659.577m-507.367-651.119h507.367m-507.367 8.456h507.367m-507.367 8.456h507.367m-507.367 16.912h507.367m-507.367 8.456h507.367m-507.367 8.456h507.367m-507.367 16.912h507.367m-507.367 8.457h507.367m-507.367 8.456h507.367m-507.367 16.911h507.367m-507.367 8.457h507.367m-507.367 8.456h507.367m-507.367 16.912h507.367m-507.367 8.457h507.367m-507.367 8.456h507.367m-507.367 16.912h507.367m-507.367 8.456h507.367m-507.367 8.456h507.367m-507.367 16.912h507.367m-507.367 8.456h507.367m-507.367 8.457h507.367m-507.367 16.912h507.367m-507.367 8.456h507.367m-507.367 8.455h507.367m-507.367 16.913h507.367m-507.367 8.457h507.367m-507.367 8.456h507.367m-507.367 16.912h507.367m-507.367 8.456h507.367m-507.367 8.456h507.367m-507.367 16.912h507.367m-507.367 8.456h507.367m-507.367 8.456h507.367m-507.367 16.913h507.367m-507.367 8.456h507.367m-507.367 8.456h507.367m-507.367 16.911h507.367m-507.367 8.457h507.367m-507.367 8.456h507.367m-507.367 16.913h507.367m-507.367 8.456h507.367m-507.367 8.456h507.367m-507.367 16.912h507.367m-507.367 8.456h507.367m-507.367 8.456h507.367m-507.367 16.913h507.367m-507.367 8.455h507.367m-507.367 8.457h507.367m-507.367 16.912h507.367m-507.367 8.456h507.367m-507.367 8.456h507.367m-507.367 16.913h507.367m-507.367 8.456h507.367m-507.367 8.456h507.367m-507.367 16.912h507.367m-507.367 8.456h507.367m-507.367 8.456h507.367m-507.367 16.913h507.367" fill="none" stroke="#e6e6e6" stroke-miterlimit="10" stroke-width=".423"/><g fill="#868686" fill-opacity=".118" transform="translate(0 -194)"><path d="m271.25 375.824c-131.148 0-237.55 106.403-237.55 237.551s106.402 237.55 237.55 237.55 237.55-106.402 237.55-237.55-106.402-237.55-237.55-237.55zm-10.987 457.483c-121.448 0-222.11-98.484-222.11-219.932s100.662-219.932 222.11-219.932 219.933 98.484 219.933 219.932-98.486 219.932-219.933 219.932z"/><path d="m249.277 411.06c-111.748 0-206.769 90.567-206.769 202.315s95.02 202.314 206.769 202.314c111.747 0 202.314-90.566 202.314-202.314s-90.567-202.314-202.314-202.314zm-10.987 387.11c-102.048 0-191.328-82.747-191.328-184.795s89.28-184.795 191.328-184.795 184.696 82.747 184.696 184.795-82.648 184.795-184.696 184.795z"/><path d="m227.303 446.199c-92.348 0-175.985 74.828-175.985 167.176s83.637 167.176 175.985 167.176 167.077-74.828 167.077-167.176-74.828-167.176-167.077-167.176zm-11.086 316.734c-82.647 0-160.544-67.01-160.544-149.558 0-82.549 77.996-149.558 160.544-149.558 82.55 0 149.657 66.91 149.657 149.558s-67.009 149.558-149.657 149.558z"/><path d="m205.23 481.435c-72.848 0-145.202 59.091-145.202 131.94s72.255 131.94 145.203 131.94 132.038-59.091 132.038-131.94-59.09-131.94-132.038-131.94zm-10.986 246.36c-63.149 0-129.762-51.172-129.762-114.42s66.613-114.42 129.762-114.42 114.42 51.271 114.42 114.42-51.271 114.42-114.42 114.42z"/><path d="m183.257 516.573c-53.449 0-114.42 43.353-114.42 96.802s60.971 96.802 114.42 96.802c53.45 0 96.802-43.353 96.802-96.802s-43.353-96.802-96.802-96.802zm-10.986 175.987c-43.75 0-98.98-35.435-98.98-79.184s55.23-79.184 98.98-79.184c43.748 0 79.183 35.435 79.183 79.184s-35.435 79.184-79.183 79.184z"/></g><path d="m46.5 460.75v90h465.5v-90z" fill="#fff" fill-opacity=".627" filter="url(#a)" stroke-width=".795548" transform="matrix(1 0 0 1.5800377 0 -419.45574)"/><path d="m46.5 0v465.5h465.5v-465.5z" fill="#fff" filter="url(#a)" stroke-width="1.188774" transform="matrix(1 0 0 .70762257 0 -13.610169)"/><path d="m0 660h46.5v-660h-46.5z" fill="#2daae4"/></svg>