<?xml version="1.0" encoding="UTF-8"?>
<svg width="512" height="660" version="1.1" xmlns="http://www.w3.org/2000/svg">
 <defs>
  <filter id="a" x="0" y="0" width="1" height="1.0222" color-interpolation-filters="sRGB">
   <feFlood flood-opacity=".1"/>
   <feComposite in2="SourceGraphic" operator="in"/>
   <feOffset dy="2" result="result1"/>
   <feComposite in="SourceGraphic" in2="result1"/>
  </filter>
 </defs>
 <path d="m34.566 0.501v659m34.066-659v659m34.067-659v659m34.066-659v659m34.067-659v659m34.066-659v659m34.067-659v659m34.066-659v659m34.067-659v659m34.066-659v659m34.067-659v659m34.066-659v659m34.067-659v659m34.066-659v659m-476.93-625.2h511m-511 33.794h511m-511 33.795h511m-511 33.794h511m-511 33.795h511m-511 33.794h511m-511 33.795h511m-511 33.794h511m-511 33.795h511m-511 33.794h511m-511 33.795h511m-511 33.794h511m-511 33.795h511m-511 33.794h511m-511 33.794h511m-511 33.795h511m-511 33.794h511m-511 33.795h511m-511 33.794h511m-502.48-642.1v659m8.5165-659v659m8.5166-659v659m17.033-659v659m8.5165-659v659m8.5166-659v659m17.034-659v659m8.5165-659v659m8.5166-659v659m17.032-659v659m8.5176-659v659m8.5165-659v659m17.034-659v659m8.5166-659v659m8.5165-659v659m17.033-659v659m8.5166-659v659m8.5166-659v659m17.033-659v659m8.5176-659v659m8.5165-659v659m17.033-659v659m8.5166-659v659m8.5165-659v659m17.033-659v659m8.5176-659v659m8.5166-659v659m17.033-659v659m8.5166-659v659m8.5165-659v659m17.033-659v659m8.5166-659v659m8.5176-659v659m17.033-659v659m8.5166-659v659m8.5166-659v659m17.033-659v659m8.5166-659v659m8.5176-659v659m17.033-659v659m8.5165-659v659m8.5166-659v659m17.033-659v659m8.5165-659v659m8.5166-659v659m8.5186-659h-511v659h511v-659 659m-511-650.55h511m-511 8.4486h511m-511 8.4486h511m-511 16.897h511m-511 8.4486h511m-511 8.4486h511m-511 16.897h511m-511 8.4496h511m-511 8.4486h511m-511 16.896h511m-511 8.4496h511m-511 8.4486h511m-511 16.897h511m-511 8.4496h511m-511 8.4486h511m-511 16.897h511m-511 8.4486h511m-511 8.4486h511m-511 16.897h511m-511 8.4486h511m-511 8.4496h511m-511 16.897h511m-511 8.4486h511m-511 8.4476h511m-511 16.898h511m-511 8.4496h511m-511 8.4486h511m-511 16.897h511m-511 8.4486h511m-511 8.4486h511m-511 16.897h511m-511 8.4486h511m-511 8.4486h511m-511 16.898h511m-511 8.4486h511m-511 8.4486h511m-511 16.896h511m-511 8.4496h511m-511 8.4486h511m-511 16.898h511m-511 8.4486h511m-511 8.4486h511m-511 16.897h511m-511 8.4486h511m-511 8.4486h511m-511 16.898h511m-511 8.4476h511m-511 8.4496h511m-511 16.897h511m-511 8.4486h511m-511 8.4486h511m-511 16.898h511m-511 8.4486h511m-511 8.4486h511m-511 16.897h511m-511 8.4486h511m-511 8.4486h511m-511 16.898h511" stroke="#e6e6e6" style="fill:#ffffff"/>
 <path d="m46 460v90h466v-90z" fill="#ffffff" fill-opacity=".65" filter="url(#a)"/>
 <path d="m46 0v466h466v-466z" fill="#ffffff" filter="url(#a)"/>
 <path d="m0 660h46v-660h-46z" fill="#2daae4" style="fill:#3b3b98"/>
 <rect x="86" y="40" width="386" height="386" rx="24" ry="24" fill="#1b9cfc" style="filter:url(#a)"/>
 <path d="m184.53 70.114c-12.375 0-22.535 10.161-22.535 22.537v160.11h-2.6094a14.448 14.448 0 0 0-14.446 14.446v33.439c-14.529 14.133-29.095 30.058-37.195 51.662-3.7307 9.9588 4.2151 20.4 14.811 19.458l17.441-1.5556 6.093 16.289c4.3753 11.68 20.504 12.701 26.316 1.6617 6.2879-11.949 13.848-22.843 23.202-32.636 18.416 16.938 46.015 29.66 83.401 29.66 37.378 0 64.975-12.717 83.391-29.649 9.3489 9.7851 16.907 20.68 23.193 32.625 5.8112 11.04 21.94 10.019 26.316-1.6637l6.093-16.287 17.441 1.5556c10.596 0.94377 18.542-9.4995 14.811-19.458-8.1002-21.604-22.666-37.529-37.195-51.662v-33.439a14.448 14.448 0 0 0-14.446-14.446h-2.5901v-160.11c0-12.377-10.161-22.537-22.537-22.537z" fill="#ffffff"/>
 <path d="m191.18 99.295v165.03h175.66v-165.03zm53.285 19.053c13.626-0.0656 26.532 2.4517 34.547 10.973 8.0134-8.5209 20.921-11.04 34.547-10.973 1.5899 8e-3 2.8747 1.2988 2.875 2.8887v4.8242c3.9314 0.72375 7.3795 1.8871 10.037 3.5488 0.84489 0.5283 1.3579 1.4547 1.3574 2.4512v60.125c0 1.8875-1.7778 3.2697-3.6074 2.7988-4.5432-1.1676-10.692-2.9316-18.051-3.582v9.0332c5.7e-4 1.3123-0.88341 2.4602-2.1524 2.7949l-22.119 5.8301v10.166h6.1152c1.5952 3e-4 2.8884 1.2934 2.8887 2.8887v10.334l-4e-3 6.8125s-0.17047 2.9809-1.6836 5.9492c-1.5131 2.9683-4.94 6.3125-10.203 6.3125-5.267 0-8.6939-3.3442-10.207-6.3125-0.92575-1.8613-1.4967-3.8788-1.6836-5.9492l-2e-3 -6.8106v-10.332c-7.8e-4 -1.596 1.2927-2.8903 2.8887-2.8906h6.1152v-12.393c8e-5 -1.3111 0.88293-2.4577 2.1504-2.793l22.119-5.8301v-7.0625c-6.1181 0.0135-12.902 0.93963-20.18 3.5625-0.72137 0.32192-1.616 0.35237-2.4024 0-19.119-6.8901-34.825-2.087-44.01 0.27344-1.8286 0.47067-3.6099-0.91058-3.6094-2.7988v-60.127c3.4e-4 -0.99724 0.51494-1.9238 1.3613-2.4512 2.6576-1.6598 6.1038-2.8251 10.037-3.5508v-4.8223c2.8e-4 -1.5899 1.2851-2.8808 2.875-2.8887zm2.9043 5.8476v50.814c10.511 0.056 20.513 2.7016 28.736 9.9082v-50.01c-5.7125-7.405-16.165-10.385-28.736-10.713zm63.285 0c-12.57 0.3281-23.025 3.3075-28.736 10.713v50.01c8.2218-7.2066 18.226-9.8522 28.738-9.9082zm-69.062 7.9082c-2.2388 0.49794-4.162 1.1195-5.6211 1.8027v54.588c7.6331-1.9686 19.146-4.4586 32.982-1.9824-6.9982-4.7246-15.153-6.0856-24.363-5.7285-1.637 0.0617-2.9978-1.2485-2.998-2.8867zm74.84 45.795c-2.5e-4 1.6382-1.361 2.9484-2.998 2.8867-9.21-0.35705-17.365 1.0039-24.363 5.7285 13.834-2.4762 25.349 0.0157 32.98 1.9824v-54.592c-1.4572-0.68322-3.3803-1.3028-5.6182-1.8008zm-43.535 47.111v4.5547h3.2246v-4.5547zm9.0039 0v4.5547h3.2226v-4.5547zm-9.0039 10.334v3.6602c6e-3 0.0637 0.17273 1.847 1.0586 3.5859 0.90131 1.7679 1.9783 3.1602 5.0566 3.1602 3.0783 0 4.1534-1.3904 5.0566-3.1621 0.88394-1.7331 1.0489-3.5048 1.0547-3.5781v-3.666zm-70.756 82.139c1.0609 1.8631 2.2033 3.6787 3.4238 5.4414 12.012 17.302 33.008 33.082 73.447 33.082 40.437 0 61.435-15.78 73.447-33.08 1.2208-1.7632 2.3632-3.5794 3.4238-5.4434z" style="fill:#3b3b98"/>
 <path d="m159.4 317.47v0.78711c0 0.32038 0.18112 0.5461 0.4629 0.64453l28.621 10.113c-2.1867-4.1167-4.7213-7.5132-6.0742-11.545h-23.01zm216.2 0c-1.3529 4.0318-3.8875 7.4282-6.0742 11.545l28.621-10.113a0.6562 0.6562 0 0 0 0.4629-0.64453v-0.78711h-23.01z" style="fill:#2980b9"/>
 <path d="m155.93 310.08c-14.402 13.937-27.598 28.483-34.654 47.305l28.398-2.5332 9.9492 26.592c8.6676-16.478 19.763-31.524 34.412-44.467a86.076 86.076 0 0 1-2.3613-3.1738l-33.238-11.744c-1.1773-0.41688-2.5059-1.4466-2.5059-2.5293v-9.4492zm246.14 0v9.4492c0 1.0827-1.3286 2.1124-2.5059 2.5293l-33.238 11.744a86.063 86.063 0 0 1-2.3613 3.1738c14.649 12.943 25.744 27.988 34.412 44.467l9.9492-26.592 28.398 2.5332c-7.0561-18.821-20.253-33.368-34.654-47.305z" style="fill:#74b9ff"/>
 <path d="m159 267v48h240v-48zm149.48 6.9552c1.9208 0.86615 4.25 1.9356 5.8184 1.4449l-3.6963 2.4205c-0.76481 0.50249-2.1144-0.0528-2.9295-0.4145-1.125-0.50053-1.8123-0.84855-2.7185-0.84855-1.4483 0-1.975 0.44774-2.124 1.0832-0.39305 1.6443 0.21299 2.0354 0.96812 2.4127 1.0882 0.54549 3.462-0.16815 4.1706-0.96783-0.13167 0.50053-0.44534 0.91112-1.0185 1.2318-0.89261 0.49271-2.5268 0.6589-3.4852 0.43014-1.365-0.32456-1.7116-1.0714-1.8239-1.8046-0.2401-1.5642 0.72221-2.9914 1.8685-4.0844 0.9778-0.93263 2.331-1.1848 3.4223-1.1848 0.65542 0.0137 1.2169 0.13295 1.548 0.28155zm-120.34 11.866c0 6.1048 5.0377 11.344 11.989 12.468v-19.943c-0.1456-0.12982-0.2815-0.27033-0.40661-0.42036l-2.1066 1.791v13.203l-4.6276 1.4742v-9.1366c0-1.2142-0.8016-1.8672-1.4851-1.8672v-0.93849l8.6879-7.3926c1.2915 0.7508 2.6139 1.089 4.2152 1.089 1.4619 0 2.8734-0.33433 3.9635-0.93849 0.06 0.23658 0.091 0.47707 0.091 0.72147 0 2.0373-2.126 3.6934-4.7457 3.6914-0.77619 1e-3 -1.5424-0.1487-2.2402-0.43796v19.266c0.4525 0.0364 0.9067 0.0546 1.3612 0.0547 1.8594-6.3e-4 3.7017-0.30583 5.4292-0.89939-2.7003 2.2069-6.2092 3.4289-9.8477 3.4294-8.1164 0-14.696-5.9543-14.696-13.299-6.2e-4 -6.4706 5.145-12.003 12.191-13.106-4.7845 2.206-7.7722 6.5075-7.772 11.19zm133.89-10.683c0.72996 0.0879 1.4948 0.42428 2.1686 0.98542 0.5344 0.44383 1.1037 1.2963 1.1037 2.0608-5.5e-4 1.6408-2.2664 2.5219-3.7248 1.4487-1.4584-1.0733-0.76043-3.1082 1.1477-3.3452-0.2033-0.28155-0.44146-0.48097-0.69704-0.55136-0.58087-0.16424-1.3418-0.22289-2.1221-0.1877v23.157l0.63895 0.09c4.5288 0.66281 6.0314-4.2174 6.0314-6.6868l0.80741 0.46924c0 1.0773 0.27301 8.4073-7.987 10.302-2.308-1.2806-5.6848-1.7343-9.3443-1.9532-2.6739-0.15837-7.714 0.99715-7.714 3.3981 0 1.3589 1.1424 3.795 7.2899 3.795 7.348 0 7.5881-1.4332 8.4962-2.9641 0 1.4371 0.16458 4.9134-9.4449 4.9134-3.5452 0-7.4739-2.1312-7.4739-5.9633 0-1.5837 1.3747-4.016 4.647-4.9271 4.6915-1.3022 8.8157-1.134 12.708-0.65108v-22.817c-1.1424 0-1.8336 1.6365-1.8336 2.7998v12.9c0 3.4861-2.7998 5.9282-5.344 5.9282 0.759-0.48684 1.6923-1.6521 1.6923-3.3727v-12.9c0-3.4881 2.8075-5.7483 5.345-5.9282 0.53733-0.0391 1.2712-0.0919 2.0844-0.0919 0.69702-3e-5 1.0049 0.0273 1.5257 0.0919zm-144.03 0.51421 1.1772 1.4038v2.7959l-3.6091 1.1399-1.0223-1.22v-3.0306zm117.73 0 1.1772 1.4038v2.7959l-3.6072 1.1399-1.0223-1.22v-3.0306zm37.675 0 1.1772 1.4038v2.7959l-3.6091 1.1399-1.0204-1.22v-3.0306zm47.767 0 1.1792 1.4038v2.7959l-3.6111 1.1399-1.0185-1.22v-3.0306zm-31.849 0.33824v1.2709c0 2.1156-2.9295 2.096-2.9295 4.1822v2.5418l3.8241-1.22c0.26917-0.0859 0.51891-0.14078 0.759-0.15251 0.39886-0.0195 0.77449 0.088 1.1695 0.39886 1.6168 1.2631 2.1802 2.9132 2.1802 3.8048v11.399l-4.6276 1.4742-3.8279 1.22c-0.7164 0.22876-1.2934 0.25027-1.9246-0.2444-1.6187-1.265-2.1821-2.9132-2.1821-3.8068v-14.899c0-0.95805-0.0639-1.922-1.5103-2.0275v-1.0538zm-36.467 2.0608c-0.76094 0.48489-1.6942 1.6502-1.6942 3.3727v11.215c0 3.4881-2.7998 5.9281-5.344 5.9281 0.759-0.48489 1.6923-1.6502 1.6923-3.3727v-11.215c0-3.4861 2.7998-5.9301 5.344-5.9301zm-59.886 1.3178v3.8478h1.8104l-0.69511 1.5778h-1.1172v12.087c0 1.2142 0.8016 1.8672 1.487 1.8672v0.93849l-4.2888 1.3686c-0.40641 0.12969-1.8259-1.1184-1.8259-1.7636v-14.5h-1.8317l0.57119-1.2963c0.37919-0.0688 0.74865-0.16238 1.1821-0.30694 2.1209-0.75077 3.2717-2.2251 3.5908-3.8204zm32.519 3.1166c0.30011 0.55918 0.59829 1.0265 0.78611 1.3589 0.89067 1.5759 1.2702 1.922 1.9556 1.922v0.94045l-4.2907 1.3667c-0.40661 0.12904-1.2121-1.5368-1.5277-2.1233l-0.58668-1.0949c-0.0997-0.21457-0.31322-0.35167-0.54795-0.35193-0.27495 4e-3 -0.54796 0.14077-0.82096 0.26199-0.26527 0.11731-0.29625 0.40473-0.29625 0.81336v4.0316c0 1.2142 0.4918 1.5114 1.9943 1.0362l4.3352-1.3706c0.51021-0.1613 1.7813 1.1614 1.7813 1.7655v5.7502c0 0.76057-0.0135 1.3647-2.4338 2.137l-6.4322 2.0471c-0.5344 0.1701-0.81322 0.12318-1.092-0.39886-0.30205-0.55723-0.59829-1.0265-0.78611-1.3589-0.89066-1.5739-1.2702-1.922-1.9556-1.922v-0.9385l4.2907-1.3686c0.40661-0.12709 1.2121 1.5368 1.5277 2.1233l0.58861 1.0949c0.16071 0.29914 0.40468 0.35584 0.54796 0.35193 0.27107-4e-3 0.54602-0.14077 0.82096-0.26199 0.26333-0.11732 0.29625-0.40473 0.29625-0.81532v-4.0277c0-1.2161-0.49181-1.5114-1.9982-1.0362l-4.3314 1.3686c-0.51024 0.16123-1.7813-1.1614-1.7813-1.7655v-5.7483c0-0.76253 0.0116-1.3667 2.4319-2.137l6.4302-2.049c0.16238-0.0601 0.33438-0.0833 0.50826-0.086 0.23718 0.0195 0.41144 0.16031 0.58571 0.48488zm-17.01 6e-3 0.67187 0.3578c1.9981 1.0641 2.7998 2.5085 2.7998 3.6386v4.7316c0 0.99714-0.51311 1.4879-2.1473 2.0099l-5.9036 1.877c0 2.5085 2.3486 3.7677 6.8833 2.5183v1.0011l-6.3702 2.0295c-0.75159 0.23945-1.52 0.76643-2.854 0.0372-1.3128-0.71951-2.2867-2.53-2.2867-3.5174v-11.751zm-34.444 0.0431c0.46082 0.0235 1.4444 0.86615 1.7097 1.4859l3.4639-1.1027c1.2372-0.39494 2.339 0.28351 2.6391 0.8818 0 0 1.0262 1.5896 1.2392 2.4635 0.1549 0.64521 0 1.9708 0 1.9708l-4.4224 1.4077-0.27108-0.18378c-2.2236-1.5075 0.0445-3.4138-2.5752-3.5311v10.955c0 1.2142 0.8016 1.8672 1.4851 1.8672v0.93849l-4.2888 1.3686c-0.40584 0.12951-1.8239-1.1184-1.8239-1.7636v-12.58c0-1.2161-0.80353-1.8672-1.487-1.8672v-0.9385zm129.17 0c0.43988-0.13933 1.4425 0.86615 1.7097 1.4859l3.4639-1.1027c1.2372-0.39494 2.337 0.28351 2.6372 0.8818 0 0 1.0262 1.5896 1.2392 2.4635 0.15489 0.64521 0 1.9708 0 1.9708l-4.4204 1.4077-0.27107-0.18378c-2.2236-1.5075 0.0426-3.4138-2.5771-3.5311v10.955c0 1.2142 0.80353 1.8672 1.487 1.8672v0.93849l-4.2888 1.3686c-0.40584 0.12951-1.8259-1.1184-1.8259-1.7636v-12.58c0-1.2161-0.80354-1.8672-1.487-1.8672v-0.9385zm-140.74 0.42818c1.3147 0.71952 2.2867 2.53 2.2867 3.5174v10.39c0 1.2161 0.80354 1.8692 1.489 1.8692v0.93849l-4.2907 1.3686c-0.6467 0.20529-1.2427-2.0959-1.8259-1.9102l-5.2511 1.6717c-2.1564 0.68648-2.7979-2.5105-2.7979-3.6406v-4.7316c0-0.99715 0.51311-1.486 2.1454-2.008l5.9055-1.8809c0-2.7119-2.7436-3.969-8.0412-2.1605v-0.98933l7.5242-2.3971c0.4705-0.15055 0.94875-0.41059 1.5654-0.40961 0.37079 9.8e-4 0.79289 0.0988 1.2905 0.37246zm-44.531 0.14469c0.51019-0.16137 1.7813 1.1614 1.7813 1.7655v12.009c0 1.2142 0.80353 1.8672 1.487 1.8672v0.93849l-4.2907 1.3686c-0.40586 0.12946-1.8239-1.1184-1.8239-1.7636v-12.007c0-1.2161-0.80354-1.8692-1.487-1.8692v-0.93849zm117.73 0c0.5102-0.16137 1.7813 1.1614 1.7813 1.7655v12.009c0 1.2142 0.80354 1.8672 1.487 1.8672v0.93849l-4.2888 1.3686c-0.40584 0.12951-1.8259-1.1184-1.8259-1.7636v-12.007c0-1.2161-0.8016-1.8692-1.487-1.8692v-0.93849zm37.675 0c0.51019-0.16137 1.7813 1.1614 1.7813 1.7655v12.009c0 1.2142 0.80353 1.8672 1.487 1.8672v0.93849l-4.2888 1.3686c-0.40584 0.12951-1.8259-1.1184-1.8259-1.7636v-12.007c0-1.2161-0.8016-1.8692-1.487-1.8692v-0.93849zm47.767 0c0.51202-0.16202 1.7813 1.1614 1.7813 1.7655v12.009c0 1.2142 0.80354 1.8672 1.487 1.8672v0.93849l-4.2888 1.3686c-0.40584 0.12951-1.8259-1.1184-1.8259-1.7636v-12.007c0-1.2161-0.8016-1.8692-1.4851-1.8692v-0.93849zm-34.726 3.0579v8.8531c0 2.2876 0.62541 4.1059 3.3071 2.489v-8.8512c0-1.656-0.32529-3.0677-1.5199-3.1097-0.45695-0.0205-1.0456 0.17108-1.7872 0.61882zm-82.493 0.0469v7.3554c0 2.3114 3.4213-1.529 3.4213-3.2945v-2.5183c0-0.85246-0.63121-2.0236-1.9159-2.008-0.42888 4e-3 -1.5054-0.19668-1.5054 0.46534zm-43.765 3.8752c0-2.3114-3.4233 1.529-3.4233 3.2965v2.5163c0 1.134 1.123 2.8389 3.4233 1.5446z" fill="#2daae4"/>
 <path d="m185.47 317.48a95.89 95.89 0 0 0 7.9844 13.846c14.378 20.711 41.121 39.414 85.551 39.414 44.429 0 71.173-18.702 85.551-39.414a95.88 95.88 0 0 0 7.9844-13.846h-13.34a78.622 78.622 0 0 1-4.3753 7.0908c-12.45 17.934-34.624 34.323-75.82 34.323-41.198 0-63.37-16.39-75.82-34.323a78.636 78.636 0 0 1-4.3753-7.0908zm-0.94184-232.92c-4.4351 0-8.0906 3.6574-8.0906 8.0906v171.67h11.848v-166.47a1.4456 1.4456 0 0 1 1.4436-1.4456h178.55a1.4456 1.4456 0 0 1 1.4456 1.4456v166.47h11.844v-171.67c0-4.4332-3.6554-8.0886-8.0886-8.0906z" fill="#2daae4"/>
</svg>
