<?xml version="1.0" encoding="UTF-8"?>
<svg width="635" height="145" version="1.1" xmlns="http://www.w3.org/2000/svg" xmlns:xlink="http://www.w3.org/1999/xlink">
 <path id="a" d="m22.793 16.927-10.074 3.7298v10.39l2.9789 4.1741 10.531-3.8985v-9.5829zm-12.796 30.24v3.2208c1.9974 0 4.3382 2.2351 4.3382 6.3994v41.147c0 2.2116 4.139 6.4818 5.3246 6.0375l12.516-4.6811v-3.2198c-1.9974 0-4.3382-2.2361-4.3382-6.4004v-41.146c0-2.0733-3.6384-5.9571-5.198-6.0532z" fill="#2daae4"/>
 <path d="m39.487 58.337c5.07e-4 25.169 19.199 45.572 42.882 45.572 10.616-4.6e-4 20.854-4.1855 28.733-11.745-5.0415 2.0326-10.418 3.0769-15.843 3.0776-1.3255 1.18e-4 -2.6503-0.06206-3.9702-0.18634v-66.019c2.0361 0.9911 4.2719 1.5043 6.5368 1.5005 7.6469 9.81e-4 13.847-5.6648 13.846-12.653 0-0.83168-0.0903-1.6604-0.26795-2.4754-3.1801 2.0733-7.2955 3.2198-11.562 3.2198-4.6719 0-8.5302-1.1592-12.303-3.7327l-25.348 25.329v3.2198c1.9974 0 4.3382 2.2361 4.3382 6.3994v31.308l13.503-5.0489v-45.247l6.1422-6.1375c0.35923 0.51195 0.75968 0.99154 1.1876 1.4446v68.337c-20.284-3.853-34.984-21.805-34.984-42.724-3.37e-4 -16.045 8.7195-30.785 22.682-38.343-20.558 3.7793-35.573 22.734-35.573 44.907z" fill="#27ae60"/>
 <path d="m144.24 42.107-21.958 8.2148v3.3836c15.459-6.1983 23.46-1.886 23.46 7.4105l-17.225 6.4416c-4.7672 1.782-6.262 3.4601-6.262 6.8858v16.208c0 3.874 2.3399 8.813 8.1661 12.475l15.321-5.7305c0 2.0968 3.4352 7.2497 5.3256 6.5436l12.516-4.6821v-3.2198c-1.9974 0-4.3382-2.2361-4.3382-6.3994v-35.608c0-3.3826-2.8405-9.5868-6.6732-12.05-3.8887-2.5009-6.1393-0.69241-8.332 0.1275zm1.5017 24.283v25.209c-6.7105 4.4389-9.9838-1.3966-9.9838-5.2892v-8.6277c0-6.0522 3.6414-8.6051 9.9838-11.292zm141.06-26.027-26.864 10.047v40.27c0 3.3836 2.8414 9.5878 6.6742 12.051 3.8887 2.4999 6.1383 0.69142 8.331-0.12848l18.585-6.9516v-3.4346c-13.237 4.2839-20.085-0.03138-20.085-8.6218l17.225-6.4416c4.7671-1.783 6.262-3.4601 6.262-6.8868v-16.207c0-3.8749-2.3399-8.814-8.1671-12.476zm-8.9699 11.154c3.7523-0.04904 5.5946 3.9622 5.5946 6.8829v8.6267c0 6.0532-3.6424 8.6061-9.9838 11.292v-25.208c1.6774-1.1102 3.1388-1.577 4.3893-1.5937zm-53.468-7.7087-1.6666 4.4428h5.3472v49.684c0 2.2116 4.139 6.4818 5.3246 6.0375l12.516-4.6811v-3.2198c-1.9974 0-4.3382-2.2361-4.3382-6.4004v-41.419h3.2586l2.0248-5.4039h-5.2824v-13.183l-3.2556-9.81e-4c-0.37535 5.5589-4.2872 10.522-10.477 13.094-1.2656 0.49315-2.3443 0.81457-3.4514 1.0509zm110.36-5.1264c-0.4142-0.03727-0.89317 0.0765-1.4781 0.29423l-18.765 7.0192c-7.0609 2.6412-7.1002 4.7174-7.1002 7.3193v19.703c0 2.0723 3.6394 5.9532 5.199 6.0512l12.642-4.6948c4.3922-1.631 5.8262-0.61297 5.8262 3.5503v13.809c0 1.4044-0.0952 2.393-0.86667 2.7932-0.79796 0.41388-1.5959 0.88071-2.3949 0.89641-0.41615 0.0098-1.1287-0.18046-1.5959-1.2024l-1.7157-3.7543c-0.91966-2.0115-3.2733-7.7185-4.459-7.2752l-12.516 4.6811v3.2198c1.9974 0 3.1006 1.1906 5.7025 6.5857 0.54964 1.1387 1.4163 2.7471 2.2928 4.6605 0.81759 1.784 1.6293 1.9478 3.1899 1.3632l18.766-7.0173c7.0609-2.6412 7.1002-4.7174 7.1002-7.3193v-19.703c0-2.0733-3.6394-5.9532-5.199-6.0512l-12.642 4.6948c-4.3922 1.631-5.8262 0.61297-5.8262-3.5513v-13.809c0-1.4035 0.0942-2.393 0.86568-2.7932 0.79796-0.4129 1.5969-0.87973 2.3949-0.89641 0.41615-0.0088 1.1287 0.18144 1.5969 1.2034l1.7157 3.7543c0.91868 2.0105 3.2723 7.7185 4.459 7.2752l12.516-4.6821v-3.2198c-1.9974 0-3.1015-1.1896-5.7025-6.5857-0.54964-1.1377-1.4173-2.7461-2.2938-4.6605-0.51038-1.1141-1.0208-1.5967-1.7117-1.6584zm187.97-20.596-26.464 9.8997v3.6072c4.2185 0.35699 4.405 3.6592 4.405 6.9516v51.047c0 3.058 1.644 8.7091 6.367 13.042 1.8442 1.6928 3.5255 1.6222 5.6181 0.83952l24.672-9.2289v-39.06c0-3.059-1.644-8.712-6.366-13.045-1.1562-1.0612-2.2476-1.427-3.4146-1.3623-0.69981 0.03923-1.4271 0.23342-2.2123 0.52666l-11.16 4.176v-8.7091c0-7.1438 3.2988-10.528 8.5548-14.333zm-3.3391 32.738c3.4843 0.15006 4.4334 4.9891 4.4334 10.662v30.333c-7.8226 5.5393-9.6501-0.68652-9.6501-8.5296v-30.335c2.1652-1.5319 3.8828-2.1871 5.2167-2.1302z" fill="#2daae4"/>
 <path d="m389 14.205c-3.3469 3.7504-6.155 8.6316-5.4542 13.995 0.32881 2.5107 1.3447 5.0715 5.3296 6.1905 2.7914 0.78362 7.5595 0.20792 10.162-1.4868 1.6784-1.0935 2.5912-2.496 2.9739-4.2104-2.069 2.7402-8.9935 5.1823-12.176 3.314-2.1976-1.2897-3.9662-2.6284-2.8198-8.2677 0.44167-2.1782 1.9728-3.7141 6.1972-3.7141 2.6451 0 4.6484 1.1975 7.9325 2.9099 2.3792 1.2406 6.315 3.1433 8.5489 1.4231l10.784-8.2962c-4.5758 1.6771-11.373-1.988-16.979-4.9528-0.96482-0.51097-2.6029-0.9219-4.5144-0.968-3.1855-0.07552-7.1311 0.86502-9.9853 4.0632zm27.902 21.271v44.202c0 5.9022-2.7227 9.8958-4.9418 11.56 7.43 0 15.598-8.3668 15.598-20.315v-44.205c0-3.9828 2.0199-9.5966 5.3502-9.5966v78.192c-11.358-1.6575-23.389-2.2302-37.076 2.2371-9.5539 3.1188-13.56 11.455-13.56 16.88 0 13.134 11.462 20.431 21.811 20.431 28.038 0 27.55-11.912 27.55-16.836-2.6481 5.245-3.3489 10.155-24.787 10.155-17.934 0-21.271-8.3482-21.271-13.003 0-8.2334 14.705-12.189 22.511-11.642 10.675 0.75028 20.527 2.3057 27.266 6.6877 24.1-6.4886 23.299-31.607 23.299-35.293l-2.3546-1.6114c0 8.4619-4.3854 25.18-17.599 22.91-0.61638-0.1069-1.2426-0.20105-1.8619-0.30403v-79.353c2.2771-0.12456 4.4953 0.07846 6.1982 0.63749 0.73906 0.24224 1.431 0.93367 2.0258 1.8948-5.566 0.81306-7.6002 7.7846-3.3446 11.46 4.2557 3.6751 10.864 0.65374 10.863-4.9671 0-2.6186-1.6607-5.5334-3.2223-7.0594-1.963-1.9203-4.191-3.0737-6.3218-3.3777-1.5213-0.21674-2.4194-0.3109-4.456-0.30992-2.3733 0-4.5102 0.20212-6.076 0.30992-7.4131 0.51038-15.598 8.3678-15.598 20.316zm-16.214 9.986v38.427c0 5.9022-2.7217 9.8958-4.9418 11.56 7.43 0 15.599-8.3668 15.599-20.315v-38.428c0-5.9022 2.7217-9.8958 4.9414-11.56-7.4304 0-15.598 8.3668-15.598 20.316z" fill="#27ae60"/>
 <use x="344" xlink:href="#a"/>
 <use x="453" xlink:href="#a"/>
 <use x="593" xlink:href="#a"/>
 <path id="path1-3" d="m186.31 40.509-12.642 4.6978v3.2198c1.9964 0 4.3382 2.2351 4.3382 6.3994v43.109c0 2.2116 4.139 6.4818 5.3246 6.0375l12.516-4.6811v-3.2198c-1.9974 0-4.3382-2.2361-4.3382-6.4004v-37.536c7.6439 0.40015 7.5163 2.8903 7.5163 12.102l0.7901 0.62964 12.9-4.8253s0.45149-4.5468 0-6.7515c-0.61442-2.9991-3.6119-8.4443-3.6119-8.4443-0.87844-2.0537-4.0899-4.3722-7.6989-3.0227l-10.106 3.7798c-0.77637-2.1253-3.6453-5.0116-4.988-5.094z" fill="#2daae4"/>
 <use x="377" xlink:href="#path1-3"/>
</svg>
