<?xml version="1.0" encoding="UTF-8"?>
<svg width="512" height="660" version="1.1" xmlns="http://www.w3.org/2000/svg">
 <filter id="a" x="0" y="0" width="1" height="1.0141" color-interpolation-filters="sRGB">
  <feFlood flood-opacity=".1"/>
  <feComposite in2="SourceGraphic" operator="in"/>
  <feOffset dy="2" result="result1"/>
  <feComposite in="SourceGraphic" in2="result1"/>
 </filter>
 <path d="m34.566 0.501v659m34.066-659v659m34.067-659v659m34.066-659v659m34.067-659v659m34.066-659v659m34.067-659v659m34.066-659v659m34.067-659v659m34.066-659v659m34.067-659v659m34.066-659v659m34.067-659v659m34.066-659v659m-476.93-625.2h511m-511 33.794h511m-511 33.795h511m-511 33.794h511m-511 33.795h511m-511 33.794h511m-511 33.795h511m-511 33.794h511m-511 33.795h511m-511 33.794h511m-511 33.795h511m-511 33.794h511m-511 33.795h511m-511 33.794h511m-511 33.794h511m-511 33.795h511m-511 33.794h511m-511 33.795h511m-511 33.794h511m-502.48-642.1v659m8.5165-659v659m8.5166-659v659m17.033-659v659m8.5165-659v659m8.5166-659v659m17.034-659v659m8.5165-659v659m8.5166-659v659m17.032-659v659m8.5176-659v659m8.5165-659v659m17.034-659v659m8.5166-659v659m8.5165-659v659m17.033-659v659m8.5166-659v659m8.5166-659v659m17.033-659v659m8.5176-659v659m8.5165-659v659m17.033-659v659m8.5166-659v659m8.5165-659v659m17.033-659v659m8.5176-659v659m8.5166-659v659m17.033-659v659m8.5166-659v659m8.5165-659v659m17.033-659v659m8.5166-659v659m8.5176-659v659m17.033-659v659m8.5166-659v659m8.5166-659v659m17.033-659v659m8.5166-659v659m8.5176-659v659m17.033-659v659m8.5165-659v659m8.5166-659v659m17.033-659v659m8.5165-659v659m8.5166-659v659m8.5186-659h-511v659h511v-659 659m-511-650.55h511m-511 8.4486h511m-511 8.4486h511m-511 16.897h511m-511 8.4486h511m-511 8.4486h511m-511 16.897h511m-511 8.4496h511m-511 8.4486h511m-511 16.896h511m-511 8.4496h511m-511 8.4486h511m-511 16.897h511m-511 8.4496h511m-511 8.4486h511m-511 16.897h511m-511 8.4486h511m-511 8.4486h511m-511 16.897h511m-511 8.4486h511m-511 8.4496h511m-511 16.897h511m-511 8.4486h511m-511 8.4476h511m-511 16.898h511m-511 8.4496h511m-511 8.4486h511m-511 16.897h511m-511 8.4486h511m-511 8.4486h511m-511 16.897h511m-511 8.4486h511m-511 8.4486h511m-511 16.898h511m-511 8.4486h511m-511 8.4486h511m-511 16.896h511m-511 8.4496h511m-511 8.4486h511m-511 16.898h511m-511 8.4486h511m-511 8.4486h511m-511 16.897h511m-511 8.4486h511m-511 8.4486h511m-511 16.898h511m-511 8.4476h511m-511 8.4496h511m-511 16.897h511m-511 8.4486h511m-511 8.4486h511m-511 16.898h511m-511 8.4486h511m-511 8.4486h511m-511 16.897h511m-511 8.4486h511m-511 8.4486h511m-511 16.898h511" stroke="#e6e6e6" style="fill:#ffffff"/>
 <path d="m46 308v142h466v-142z" fill="#ffffff" fill-opacity=".65" filter="url(#a)"/>
 <path d="m46 0v316h466v-316z" fill="#ffffff" filter="url(#a)"/>
 <path d="m0 660h46v-660h-46z" fill="#2daae4" style="fill:#3b3b98"/>
</svg>
